
<svg version="1.1" xmlns="http://www.w3.org/2000/svg" xmlns:xlink="http://www.w3.org/1999/xlink" x="0px" y="0px" viewBox="0 0 256 256" enable-background="new 0 0 256 256" xml:space="preserve">
<metadata> Svg Vector Icons : http://www.onlinewebfonts.com/icon </metadata>
<g><g><g><path fill="rgb(238, 150, 72)" d="M16.4,18.4c-1.4,1.4-1.8,3.4-1.1,5.3c0.2,0.5,2.2,2.3,4.5,4l4.1,3.1l-0.4,56.4c-0.2,31.1-0.5,56.5-0.6,56.7c-0.1,0.1-1.6-0.2-3.3-0.7c-6.4-1.9-9.6-0.8-9.6,3.5c0,3,1.5,4.2,7.1,5.7c4,1,4.9,1.5,4.7,2.2c-0.8,2.7-2.9,14.4-4,22.2c-1.4,10.3-2.1,36.6-1.4,50.8c0.4,8.2,0.5,8.9,1.8,10.2c1.7,1.7,4.3,1.8,6.2,0.2l1.4-1.1L25.7,215c-0.2-17,0-23.7,0.8-30.6c0.9-9.1,3.1-22.8,3.8-24.8c0.2-0.6,0.6,3,0.8,8c0.2,5,1.1,16.3,2.1,25.1c2.1,18.2,3,30.2,3,37.7c0,5,0.1,5.3,1.7,7c2.1,2.1,4.3,2.2,6.3,0.2c1.3-1.2,1.5-2,1.5-6c0-8-1.2-22.9-3.3-42c-1.1-10.1-2.1-21.1-2.1-24.5v-6l1.2,1.1c1.8,1.7,6.3,11.1,7.9,16.8c4.9,17.4,8,37.2,8,51.1c0,4,0.2,7.8,0.4,8.3c0.4,1.1,3.3,2.7,4.7,2.7c0.5,0,1.8-0.8,2.7-1.7c1.7-1.7,1.7-1.8,1.7-8.2c0-18.6-6-50.3-11.9-63.3c-0.9-2.1-1.6-3.9-1.5-4.1c0.2-0.1,1.5,1.5,3,3.5c5,7,5,7,7.4,7c1.8,0,2.5-0.4,3.5-1.5c1.7-2.2,1.5-3.6-1-7.9c-3.3-5.5-7.3-9.7-11-11.6c-3.4-1.8-3.8-2.2-2.5-2.8c0.5-0.2,3.5-2.4,7-4.9c16-12,26.1-25.7,31.9-43.3c3-9.2,4.2-16.1,4.5-27.9c0.2-5.4,0.5-10.1,0.8-10.5c0.3-0.5,2.1-0.5,7.1,0.1c13.5,1.4,36.8-0.1,50.5-3.3c2.2-0.5,4.2-0.8,4.4-0.7c0.2,0.2,0.5,4.6,0.8,9.9c0.4,10,1.5,17.4,3.4,24.2c5.8,20.1,17.4,35.8,35.9,48.7c2.7,1.8,4.8,3.5,4.8,3.7c0.1,0.2-0.9,0.7-2,1.1c-4.6,1.6-13.9,12.5-14.8,17.1c-0.3,1.5-0.1,2.2,1.4,3.7c3,3,5.5,2.1,8.9-3.2c2.2-3.5,5.9-7.5,5.2-5.7c-0.2,0.5-1.2,2.9-2.2,5.3c-6.9,16.1-13.8,62.3-10.3,69.1c1.4,2.8,4.8,3.3,7,1.1c1.3-1.3,1.4-1.9,1.7-12.9c0.4-12.7,1.9-23.4,5.5-38.3c3.1-13.1,5.7-19.9,9.3-25.1c1.1-1.5,1.2-1.5,1.8-0.6c0.7,1.2,0.2,9.8-1.1,21.3c-3.4,30.3-4.9,51.9-3.7,54.2c1.7,3.1,5,3.7,7.3,1.4c1.2-1.2,1.4-2.1,1.8-9c0.7-13.4,1.5-23.2,3.4-38.6c0.9-8.3,2-18.8,2.1-23.3c0.5-9.5,0.5-9.3,2.8,5.3c2.4,15.2,3,25.1,2.5,45.9c-0.4,18.1-0.3,18.7,0.8,20c1.6,1.7,5.3,1.7,6.7,0.1c1.6-1.8,2.2-12.8,1.9-32.8c-0.4-19.5-1.6-30.6-5.5-49.7l-0.4-1.8l5.1-1.4c5.6-1.5,6.9-2.5,6.9-5.7c0-2.3-2.1-4.4-4.4-4.4c-0.9,0-3.1,0.4-4.9,0.9c-1.8,0.5-3.3,0.8-3.4,0.7c-0.2-0.2-0.9-60.1-1.1-91.1l-0.1-20.6l2.1-1.4c2.3-1.5,2.8-2.5,2.8-5c0-1.8-2.3-4.1-4.2-4.1c-0.6,0-4.4,0.9-8.4,2.1c-64.5,18.1-120.5,20.9-171.5,8.2c-9.8-2.4-19.5-5.4-26.9-8.2C19.8,16.5,18.3,16.4,16.4,18.4z M223,48.3c0,8.6,0.1,33,0.3,54.2l0.4,38.7l-1.5-5.3c-0.8-3-3-9.6-4.8-14.8c-9.1-25.6-11-32.7-12.1-46.3c-0.5-5.6-0.5-9.9,0-15.9c0.7-8.7,2.2-18.7,2.8-19c0.2-0.1,3.4-1.7,6.9-3.6c3.6-1.9,6.9-3.5,7.3-3.5C222.8,32.9,223,36.3,223,48.3z M190.5,37.4c-4.6,2.1-19.4,7.3-23.3,8.2c-2.2,0.5-4.9,1.2-5.9,1.6c-0.9,0.4-5.2,1.4-9.5,2.3c-29.4,6.3-59.6,4-86.3-6.7c-6.5-2.6-13.4-6-11.2-5.5c8.3,2,23.5,4.5,35.5,5.8c9.5,1.1,48.7,1.1,58.8,0c9.7-1,30.3-4,36.9-5.4C192.1,36.3,193.1,36.2,190.5,37.4z M42.4,42.3l5.9,3.3l1.1,5.8c0.8,4.5,1.1,9,1.2,19.5c0.1,12-0.1,14.4-1.3,20.2c-1.8,8.7-4,16-8.7,28.8c-2.2,5.8-4.8,13.7-5.9,17.4l-2,6.8l-0.1-23.9c0-13.2,0.2-37.3,0.4-53.7L33.5,37l1.5,1C35.8,38.6,39.2,40.5,42.4,42.3z M196.8,47c-0.9,4.8-1.7,18.3-1.4,24.9c0.7,13.1,3,24.1,8.2,38.5c5.6,15.7,9.4,26.8,9.4,27.5c0,0.4-0.2,0.8-0.5,0.8c-1.4,0-13.9-9.7-19.7-15.2c-16.1-15.5-23-33.1-23.6-59.4l-0.2-8.7l10.6-3.7c5.8-2,11.8-4.3,13.3-4.9C196.6,44.9,197.2,44.9,196.8,47z M70.7,54.8c2.8,0.9,7.7,2.4,10.8,3.1c3.1,0.8,5.8,1.5,5.9,1.7c0.7,0.6-1.1,23.2-2.2,28.7c-3.7,17.8-12.9,33-27.5,44.9c-5.1,4.1-14.6,10.8-15,10.4c-0.2-0.2,2.5-8.5,10.1-30.3c2.9-8.2,5.1-16.7,6.4-23.9c0.9-5,1.1-26.5,0.4-34.2l-0.5-4.8l3.1,1.2C64.1,52.5,67.8,53.9,70.7,54.8z"/></g></g></g>
</svg>